<?xml version="1.0" encoding="utf-8"?>
<!-- Generator: Adobe Illustrator 22.0.0, SVG Export Plug-In . SVG Version: 6.00 Build 0)  -->
<svg version="1.1" id="图层_1" xmlns="http://www.w3.org/2000/svg" xmlns:xlink="http://www.w3.org/1999/xlink" x="0px" y="0px"
	 viewBox="0 0 20 20" style="enable-background:new 0 0 20 20;" xml:space="preserve">
<style type="text/css">
	.st0{fill:#B4B4B5;}
	.st1{fill:#E6E6E6;}
	.st2{fill:#999999;}
</style>
<g id="OIAlMu.tif_1_">
	<g>
		<path class="st0" d="M20,20C13.3,20,6.7,20,0,20c0-0.1,0-0.2,0-0.3c0-0.4,0-0.9,0-1.3c-0.1-0.9,0.3-1.4,1-1.9
			c1.1-0.7,2.3-1.2,3.5-1.7c0.7-0.3,1.4-0.6,2-1c1-0.6,1.3-1.6,1.2-2.7c0-0.2-0.1-0.5-0.3-0.6C7.1,10,6.8,9.4,6.7,8.7
			c0-0.2-0.2-0.4-0.3-0.5C5.7,7.7,5.5,6.5,5.9,5.9C6,5.8,6,5.6,6,5.5C6,4.8,5.8,4,5.8,3.3c0.1-1.2,0.7-2.1,1.7-2.7
			c1.6-0.9,3.3-0.9,5,0c1.3,0.7,1.9,2.1,1.7,3.6C14.1,4.7,14,5.1,14,5.6c0,0.1,0,0.2,0.1,0.3c0.5,0.7,0.3,1.8-0.4,2.3
			c-0.1,0.1-0.3,0.3-0.3,0.5c-0.1,0.7-0.4,1.3-0.9,1.9c-0.4,0.5-0.3,1.2-0.2,1.8c0.1,0.7,0.6,1.3,1.2,1.6c0.7,0.4,1.5,0.8,2.3,1.1
			c1,0.5,2,0.9,3,1.4c0.1,0.1,0.2,0.1,0.3,0.2c0.6,0.4,1,0.9,0.9,1.7C19.9,18.9,20,19.4,20,20z"/>
	</g>
</g>
</svg>
